# Generated from profiles/environments/paddy_field.yaml
mtllib paddy_boundary.mtl
o paddy_boundary
usemtl bund_brown
vn 0 0 1
vn 0 0 -1
vn 0 -1 0
vn 1 0 0
vn 0 1 0
vn -1 0 0
v -10.0000 -7.5000 0.0000
v 10.0000 -7.5000 0.0000
v 10.0000 7.5000 0.0000
v -10.0000 7.5000 0.0000
v -9.8500 -7.3500 0.0000
v 9.8500 -7.3500 0.0000
v 9.8500 7.3500 0.0000
v -9.8500 7.3500 0.0000
v -10.0000 -7.5000 0.1800
v 10.0000 -7.5000 0.1800
v 10.0000 7.5000 0.1800
v -10.0000 7.5000 0.1800
v -9.8500 -7.3500 0.1800
v 9.8500 -7.3500 0.1800
v 9.8500 7.3500 0.1800
v -9.8500 7.3500 0.1800
f 9//1 10//1 14//1 13//1
f 10//1 11//1 15//1 14//1
f 11//1 12//1 16//1 15//1
f 12//1 9//1 13//1 16//1
f 1//2 5//2 6//2 2//2
f 2//2 6//2 7//2 3//2
f 3//2 7//2 8//2 4//2
f 4//2 8//2 5//2 1//2
f 1//3 2//3 10//3 9//3
f 2//4 3//4 11//4 10//4
f 3//5 4//5 12//5 11//5
f 4//6 1//6 9//6 12//6
f 5//5 13//5 14//5 6//5
f 6//6 14//6 15//6 7//6
f 7//3 15//3 16//3 8//3
f 8//4 16//4 13//4 5//4
